<svg class="avaloq-logo" width="149" height="50" xmlns="http://www.w3.org/2000/svg" viewBox="0 0 149 50"><g fill="none" fill-rule="evenodd"><g class="avaloq-logo--avaloq" fill="#004893"><path d="M84.7322286 0c-.4984248 0-.9968497.49734748-.9968497.99469496V31.6312997c0 .596817.3987399.994695.9968497.994695h4.3861389c.4984249 0 .9968498-.397878.9968498-.994695V.99469496C90.1152173.39787798 89.7164774 0 89.1183675 0h-4.3861389M24.3231339 16.4124668v-1.2931034c0-4.5755968-3.5886591-8.45490717-8.174168-8.65384616-.1993699 0-2.6914943-.09946949-3.887714-.09946949-1.1962197 0-3.78802904.09946949-3.98739899.09946949C3.78802905 6.66445623.09968497 10.5437666.09968497 15.1193634c0 .397878 0 .994695-.09968497 1.2931034v5.9681698c0 .397878 0 .994695.09968497 1.2931035 0 4.5755968 3.5886591 8.4549071 8.17416794 8.6538461.19936995 0 2.69149429.0994695 3.98739899.0994695h1.5949596c.4984249 0 .8971648-.4973475.9968498-.994695v-4.3766578c0-.4973475-.3987399-.9946949-.9968498-.9946949h-1.6946446c-.8971647 0-2.59180931 0-3.38928911-.0994695-1.29590467-.0994695-2.29275442-1.193634-2.29275442-2.4867374-.09968498-1.392573-.09968498-2.5862069-.09968498-4.1777189 0-1.5915119 0-2.7851459.09968498-4.1777188 0-1.2931035.99684975-2.4867374 2.29275442-2.4867374.7974798-.0994695 2.49212441-.0994695 3.38928911-.0994695.8971648 0 2.5918094 0 3.3892892.0994695 1.2959047.0994695 2.3924394 1.1936339 2.3924394 2.4867374.099685 1.3925729.099685 2.5862069.099685 4.1777188v12.1352785c0 .4973475.3987399.994695.9968497.994695h4.3861389c.4984249 0 .9968497-.4973475.9968497-.994695V19.2970822c-.0996849-.397878-.0996849-2.7851459-.0996849-2.8846154M78.6514452 16.4124668v-1.2931034c0-4.5755968-3.5886591-8.45490717-8.174168-8.65384616-.1993699 0-2.6914943-.09946949-3.887714-.09946949-1.1962197 0-3.788029.09946949-3.987399.09946949-4.4858238.19893899-8.1741679 4.07824936-8.1741679 8.65384616V23.6737401c0 4.5755968 3.5886591 8.4549071 8.1741679 8.6538461.19937 0 2.6914943.0994695 3.987399.0994695h1.5949596c.4984249 0 .9968498-.4973475.9968498-.994695v-4.3766578c0-.4973475-.3987399-.9946949-.9968498-.9946949h-1.6946446c-.8971647 0-2.5918093 0-3.3892891-.0994695-1.2959047.198939-2.2927544-.994695-2.2927544-2.2877984-.099685-1.392573-.099685-2.5862069-.099685-4.1777189 0-1.5915119 0-2.7851459.099685-4.1777188 0-1.2931035.9968497-2.4867374 2.3924394-2.4867374.7974798-.0994695 2.4921243-.0994695 3.3892891-.0994695.8971648 0 2.5918094 0 3.3892892.0994695 1.2959046.0994695 2.3924394 1.1936339 2.3924394 2.4867374.0996849 1.3925729.0996849 2.5862069.0996849 4.1777188v12.1352785c0 .4973475.3987399.994695.9968498.994695h4.2864539c.4984249 0 .9968497-.4973475.9968497-.994695V19.4960212c0-.596817-.0996849-2.9840849-.0996849-3.0835544M103.971429 12.7320955c.79748-.0994695 2.492124-.0994695 3.389289-.0994695.897165 0 2.591809 0 3.389289.0994695 1.295905.0994695 2.392439 1.1936339 2.392439 2.4867374.099685 1.3925729.099685 2.5862069.099685 4.1777188 0 1.591512 0 2.7851459-.099685 4.1777189 0 1.2931034-.996849 2.4867374-2.392439 2.4867374-.79748.0994695-2.492124.0994695-3.389289.0994695-.897165 0-2.591809 0-3.389289-.0994695-1.295905-.0994695-2.292755-1.193634-2.292755-2.4867374-.099685-1.392573-.099685-2.5862069-.099685-4.1777189 0-1.5915119 0-2.7851459.099685-4.1777188-.099685-1.2931035.99685-2.3872679 2.292755-2.4867374m-8.772278 6.7639257v4.2771883c0 4.5755969 3.5886591 8.4549072 8.174168 8.6538462.19937 0 2.691494.0994695 3.887714.0994695 1.19622 0 3.688344-.0994695 3.887714-.0994695 4.485824-.198939 8.174168-4.0782493 8.174168-8.6538462 0-.3978779 0-.9946949.099685-1.2931034v-5.9681698c0-.3978779 0-.9946949-.099685-1.2931034 0-4.5755968-3.588659-8.45490717-8.174168-8.65384616-.19937 0-2.691494-.0994695-3.887714-.0994695-1.19622 0-3.688344.0994695-3.887714.0994695-4.5855089.19893899-8.174168 4.07824936-8.174168 8.65384616v4.2771883ZM148.231558 16.4124668c0-.3978779 0-.9946949-.099685-1.2931034 0-4.5755968-3.588659-8.45490717-8.174168-8.65384616-.19937 0-2.691495-.09946949-3.887714-.09946949-1.19622 0-3.688344.09946949-3.887714.09946949-4.485824.19893899-8.174168 4.07824936-8.174168 8.65384616V23.6737401c0 4.5755968 3.588659 8.4549071 8.174168 8.6538461.19937 0 2.691494.0994695 3.887714.0994695h1.594959c.498425 0 .99685-.4973475.99685-.994695v-4.3766578c0-.4973475-.39874-.9946949-.99685-.9946949h-1.694644c-.897165 0-2.59181 0-3.389289-.0994695-1.295905-.0994695-2.39244-1.193634-2.39244-2.4867374-.099685-1.392573-.099685-2.5862069-.099685-4.1777189 0-1.5915119 0-2.7851459.099685-4.1777188 0-1.2931035.99685-2.4867374 2.39244-2.4867374.797479-.0994695 2.492124-.0994695 3.389289-.0994695.897165 0 2.591809 0 3.389289.0994695 1.295905.0994695 2.392439 1.1936339 2.392439 2.4867374.099685 1.3925729.099685 2.6856764.099685 4.1777188v18.5013263c0 .4973475.39874.9946949.99685.9946949h4.386139c.498425 0 .99685-.4973474.99685-.9946949V19.2970822c.099685-.397878 0-2.7851459 0-2.8846154M51.437447 6.66445623h-4.5855088c-.5981099 0-1.0965347.198939-1.2959047.69628648L39.47525 23.7732095 33.2947816 7.26127321c-.1993699-.49734748-.6977948-.69628647-1.2959047-.69628647h-4.5855088c-.3987399 0-.9968498.39787798-.6977948 1.29310345l9.7691275 24.07161801c.19937.397878.4984249.596817.8971648.596817h3.887714c.3987399 0 .7974798-.198939.8971648-.596817l9.8688125-23.97214852c.3987399-.89522546-.19937-1.29310345-.5981099-1.29310345"></path></g><path class="avaloq-logo--claim" d="M6.3665672 47.5324264h-.69634329c-.09947761 0-.19895523-.1028155-.19895523-.2056311l-.69634328-2.5703891H1.79059702l-.69634328 2.6732047c0 .1028155-.09947762.2056311-.19895523.2056311H.19895523C.0994776 47.635242 0 47.5324264 0 47.4296109v-.1028156l2.08902986-7.6083518c.19895523-.7197089.69634329-.8225245 1.19373135-.8225245.39791045 0 .99477613.2056311 1.09425374.8225245l2.08902986 7.6083518v.1028156c.09947761.1028155 0 .1028155-.09947761.1028155Zm-2.88485076-7.6083517c0-.1028156-.09947762-.2056312-.19895523-.2056312-.09947761 0-.19895522.1028156-.19895522.2056312l-1.09425374 3.9069914h2.48694031l-.99477612-3.9069914Zm8.65455226 7.6083517h-.497388c-.0994777 0-.1989553-.1028155-.1989553-.2056311v-3.8041759c0-1.1309712-.3979104-1.5422334-1.2932089-1.5422334-.49738809 0-.99477615.2056311-1.49216422.4112622v4.9351471c0 .1028156-.09947761.2056311-.19895522.2056311h-.69634329c-.09947761 0-.19895522-.1028155-.19895522-.2056311v-5.9633027c0-.1028156.09947761-.2056312.19895522-.2056312h.59686568c.09947761 0 .19895522.1028156.19895522.2056312v.2056311c.59686568-.4112623 1.09425374-.5140778 1.79059703-.5140778 1.3926866 0 1.9895522.8225245 1.9895522 2.4675735v3.8041759c0 .1028156-.0994776.2056311-.1989552.2056311Zm10.2461941 0h-.6963433c-.1989552 0-.2984328-.1028155-.3979104-.2056311l-3.4817165-6.8886428v6.8886428c0 .1028156-.0994776.2056311-.1989552.2056311h-.5968657c-.0994776 0-.1989552 0-.1989552-.1028155v-8.2252452c0-.2056311.0994776-.3084467.2984328-.3084467h.5968657c.2984329 0 .3979105.1028156.4973881.2056311l3.4817164 6.7858273v-6.8886428c0-.1028156.0994776-.2056312.1989552-.2056312h.5968657c.0994776 0 .1989552.1028156.1989552.2056312v8.1224296c0 .3084467-.0994776.4112622-.2984328.4112622Zm6.665 0c-.3979104.1028156-1.5916418.1028156-2.1885074.1028156-1.5916418 0-2.3874627-.6168934-2.3874627-2.1591268v-4.5238849c0-1.5422335.7958209-2.1591269 2.3874627-2.1591269.6963432 0 1.6911194 0 2.1885074.1028156.0994776 0 .0994776.1028156.0994776.2056311v.5140779c0 .1028155-.0994776.1028155-.0994776.1028155h-2.1885074c-1.1937314 0-1.3926866.3084467-1.3926866 1.2337868v1.645049h3.4817164c.0994776 0 .1989552.1028156.1989552.2056312v.4112622c0 .1028156-.0994776.2056312-.1989552.2056312h-3.4817164v1.9534957c0 .8225245.1989552 1.2337868 1.3926866 1.2337868h2.1885074c.0994776 0 .0994776.1028155.0994776.1028155v.6168934c0 .2056311 0 .2056311-.0994776.2056311Zm6.3665672 0c-.497388.1028156-.8952985.1028156-1.8900746.1028156-1.3926866 0-2.9843284-.7197089-2.9843284-3.5985448v-1.645049c0-2.8788358 1.5916418-3.5985448 2.9843284-3.5985448.6963433 0 1.3926866.1028156 1.8900746.2056312.0994776 0 .1989553.1028155.1989553.1028155v.6168934c0 .1028156 0 .1028156-.0994777.1028156-.3979104 0-1.2932089-.1028156-1.8900746-.1028156-1.0942537 0-1.9895522.6168934-1.9895522 2.6732047v1.645049c0 1.9534958.7958209 2.6732047 1.9895522 2.6732047.5968657 0 1.4921642-.1028155 1.8900746-.1028155h.0994777c.0994776 0 .1989552.1028155.1989552.2056311v.5140778c-.1989552.1028156-.2984329.1028156-.3979105.2056311Zm8.9529852 0c-.4973881.1028156-.8952986.1028156-1.8900747.1028156-1.3926866 0-2.9843284-.7197089-2.9843284-3.5985448v-1.645049c0-2.8788358 1.5916418-3.5985448 2.9843284-3.5985448.6963433 0 1.3926866.1028156 1.8900747.2056312.0994776 0 .1989552.1028155.1989552.1028155v.6168934c0 .1028156 0 .1028156-.0994776.1028156-.3979105 0-1.293209-.1028156-1.8900747-.1028156-1.0942537 0-1.9895522.6168934-1.9895522 2.6732047v1.645049c0 1.9534958.7958209 2.6732047 1.9895522 2.6732047.5968657 0 1.4921642-.1028155 1.8900747-.1028155h.0994776c.0994776 0 .1989552.1028155.1989552.2056311v.5140778c-.1989552.1028156-.2984328.1028156-.3979104.2056311Zm3.581194.1028156c-1.6911194 0-2.4869403-1.1309712-2.4869403-2.8788358v-.8225245c0-1.7478646.7958209-2.8788358 2.4869403-2.8788358s2.4869403 1.1309712 2.4869403 2.8788358v.8225245c0 1.7478646-.8952985 2.8788358-2.4869403 2.8788358Zm1.4921642-3.7013603c0-1.2337868-.4973881-1.9534957-1.4921642-1.9534957-.9947761 0-1.4921642.7197089-1.4921642 1.9534957v.8225245c0 1.2337868.4973881 1.9534957 1.4921642 1.9534957.9947761 0 1.4921642-.7197089 1.4921642-1.9534957v-.8225245Zm9.5498508 3.5985447h-.4973881c-.0994776 0-.1989552-.1028155-.1989552-.2056311v-4.1126226c0-1.0281556-.3979105-1.2337867-1.0942537-1.2337867-.3979105 0-.8952986.1028155-1.293209.3084466.0994776.3084467.0994776.5140779.0994776.9253401v4.1126226c0 .1028156-.0994776.2056311-.1989552.2056311h-.5968657c-.0994776 0-.1989552-.1028155-.1989552-.2056311v-4.1126226c0-1.0281556-.2984329-1.2337867-.8952985-1.2337867-.3979105 0-.8952985.2056311-1.3926866.4112622v4.9351471c0 .1028156-.0994776.2056311-.1989552.2056311h-.5968657c-.0994776 0-.1989552-.1028155-.1989552-.2056311v-5.9633027c0-.1028156.0994776-.2056312.1989552-.2056312h.5968657c.0994776 0 .1989552.1028156.1989552.2056312v.2056311c.4973881-.3084467 1.0942537-.5140778 1.5916418-.5140778s.7958209.1028155 1.0942537.5140778c.5968657-.3084467 1.293209-.5140778 1.8900747-.5140778.9947761 0 1.790597.5140778 1.790597 2.1591268v4.1126226c.0994776.1028156 0 .2056311-.0994776.2056311Zm4.0785821.1028156c-.3979105 0-.8952985-.1028156-1.293209-.1028156v2.1591269c0 .1028156-.0994776.2056311-.1989552.2056311h-.5968657c-.0994776 0-.1989552-.1028155-.1989552-.2056311v-8.019614c0-.1028156 0-.2056312.1989552-.3084467.5968657-.1028156 1.3926866-.3084467 2.0890299-.3084467 1.6911194 0 2.4869403 1.1309712 2.4869403 2.8788358v.8225245c0 1.8506802-.7958209 2.8788358-2.4869403 2.8788358Zm1.4921642-3.7013603c0-1.2337868-.3979105-2.0563113-1.4921642-2.0563113-.4973881 0-.9947761.1028156-1.293209.1028156v4.6267004c.3979105.1028155.9947762.1028155 1.293209.1028155 1.0942537 0 1.4921642-.7197089 1.4921642-2.0563113v-.7197089Zm6.4660448 3.5985447h-.4973881c-.0994776 0-.1989552-.1028155-.1989552-.2056311v-.3084467c-.4973881.3084467-1.0942537.6168934-1.6911194.6168934-.9947761 0-1.790597-.4112622-1.790597-1.8506802v-.1028155c0-1.2337868.6963433-1.8506802 2.7853731-1.8506802h.7958209v-.5140778c0-1.0281557-.2984328-1.3366023-1.1937313-1.3366023-.6963433 0-1.293209.1028155-1.6911194.1028155h-.0994777c-.0994776 0-.1989552 0-.1989552-.2056311v-.4112623c0-.1028155.0994776-.2056311.1989552-.2056311.4973881-.1028156.9947762-.1028156 1.7905971-.1028156 1.5916418 0 2.1885074.8225246 2.1885074 2.1591269v4.1126226c-.1989552 0-.2984328.1028155-.3979104.1028155Zm-.7958209-3.0844669h-.7958209c-1.3926866 0-1.6911194.3084467-1.6911194 1.1309712v.2056311c0 .8225246.3979104 1.1309713 1.0942537 1.1309713.4973881 0 .9947761-.2056312 1.4921642-.5140779l-.0994776-1.9534957Zm7.0629105 3.0844669h-.4973881c-.0994776 0-.1989552-.1028155-.1989552-.2056311v-3.8041759c0-1.1309712-.3979105-1.5422334-1.293209-1.5422334-.497388 0-.9947761.2056311-1.4921642.4112622v4.9351471c0 .1028156-.0994776.2056311-.1989552.2056311h-.5968657c-.0994776 0-.1989552-.1028155-.1989552-.2056311v-5.9633027c0-.1028156.0994776-.2056312.1989552-.2056312h.5968657c.0994776 0 .1989552.1028156.1989552.2056312v.2056311c.5968657-.4112623 1.0942538-.5140778 1.7905971-.5140778 1.3926865 0 1.9895522.8225245 1.9895522 2.4675735v3.8041759c-.0994776.1028156-.1989552.2056311-.2984328.2056311Zm6.2670896-6.0661183-1.8900747 6.7858273C81.2732094 49.4859222 80.8752989 50 79.58209 50c-.2984329 0-.6963433-.1028156-.9947762-.1028156-.0994776 0-.1989552-.1028155-.1989552-.2056311v-.4112623c0-.1028155.0994776-.2056311.1989552-.2056311.2984329 0 .7958209.1028156.9947762.1028156.5968656 0 .8952985-.2056311 1.0942537-1.0281557l.0994776-.5140778h-.1989552c-.3979105 0-.5968657-.1028156-.7958209-.8225245l-1.4921642-5.3464094v-.1028155c0-.1028156.0994776-.2056312.1989552-.2056312h.5968657c.0994776 0 .1989552.1028156.1989552.2056312l1.293209 5.0379626c.0994776.2056312.0994776.3084467.1989552.3084467h.1989552l1.3926866-5.3464093c0-.1028156.0994776-.2056312.1989552-.2056312h.5968657c.0994776 0 .1989552.1028156.1989552.2056312.2984329 0 .2984329 0 .1989553.1028155Z" fill="#000" fill-rule="nonzero"></path></g></svg>